<svg xmlns="http://www.w3.org/2000/svg" xmlns:xlink="http://www.w3.org/1999/xlink" width="2048" zoomAndPan="magnify" viewBox="0 0 1536 374.999991" height="500" preserveAspectRatio="xMidYMid meet" version="1.0"><defs><g/><clipPath id="7df9fa6277"><path d="M 1118.652344 264.585938 L 1176.417969 264.585938 L 1176.417969 353.050781 L 1118.652344 353.050781 Z M 1118.652344 264.585938 " clip-rule="nonzero"/></clipPath><clipPath id="ca64ee6b07"><path d="M 1176.097656 264.585938 L 1176.417969 264.90625 L 1176.417969 319.90625 L 1137.304688 342.820312 L 1118.96875 353.050781 L 1118.652344 352.734375 L 1118.652344 297.949219 Z M 1176.097656 264.585938 " clip-rule="nonzero"/></clipPath><clipPath id="c032fde436"><path d="M 0.652344 0.585938 L 58.417969 0.585938 L 58.417969 89.050781 L 0.652344 89.050781 Z M 0.652344 0.585938 " clip-rule="nonzero"/></clipPath><clipPath id="d43acc435e"><path d="M 58.097656 0.585938 L 58.417969 0.90625 L 58.417969 55.90625 L 19.304688 78.820312 L 0.96875 89.050781 L 0.652344 88.734375 L 0.652344 33.949219 Z M 58.097656 0.585938 " clip-rule="nonzero"/></clipPath><clipPath id="8c47149e71"><rect x="0" width="59" y="0" height="90"/></clipPath><clipPath id="558e1782b4"><path d="M 1191.207031 102.695312 L 1370.679688 102.695312 L 1370.679688 350.472656 L 1191.207031 350.472656 Z M 1191.207031 102.695312 " clip-rule="nonzero"/></clipPath><clipPath id="d28f1f6316"><path d="M 1304.375 102.695312 L 1315.726562 102.695312 L 1321.609375 103.117188 L 1330.015625 104.378906 L 1338.210938 106.269531 L 1348.929688 109.632812 L 1352.921875 111.3125 L 1363.429688 116.355469 L 1370.472656 120.351562 L 1370.261719 121.714844 L 1351.242188 165.535156 L 1341.363281 159.019531 L 1333.589844 155.445312 L 1328.753906 153.765625 L 1318.035156 151.453125 L 1307.109375 151.035156 L 1298.703125 151.875 L 1294.707031 152.714844 L 1288.824219 154.394531 L 1282.097656 157.128906 L 1274.953125 160.910156 L 1268.019531 165.746094 L 1258.246094 174.886719 L 1252.992188 181.402344 L 1249.839844 186.234375 L 1245.636719 194.222656 L 1242.695312 201.785156 L 1241.011719 207.671875 L 1239.332031 216.707031 L 1238.910156 221.121094 L 1238.910156 232.46875 L 1239.542969 238.566406 L 1240.59375 243.609375 L 1243.535156 253.484375 L 1245.847656 259.160156 L 1252.78125 271.347656 L 1260.242188 280.492188 L 1266.335938 286.164062 L 1271.589844 290.160156 L 1277.6875 293.941406 L 1285.042969 297.515625 L 1290.296875 299.40625 L 1297.230469 301.085938 L 1305.007812 302.136719 L 1311.730469 302.347656 L 1321.1875 301.296875 L 1331.066406 298.773438 L 1341.785156 293.941406 L 1351.242188 287.636719 L 1370.679688 332.085938 L 1363.222656 336.8125 L 1353.132812 341.859375 L 1339.261719 346.691406 L 1332.539062 348.371094 L 1323.289062 349.84375 L 1315.933594 350.472656 L 1304.167969 350.472656 L 1295.128906 349.632812 L 1286.511719 348.164062 L 1274.953125 345.011719 L 1266.546875 341.859375 L 1255.621094 336.605469 L 1250.367188 333.453125 L 1242.378906 328.199219 L 1233.867188 321.472656 L 1233.34375 320.632812 L 1225.25 312.960938 L 1216.84375 303.082031 L 1212.011719 296.359375 L 1205.917969 286.269531 L 1200.242188 274.292969 L 1195.828125 261.261719 L 1193.308594 250.542969 L 1191.625 238.773438 L 1191.207031 231.417969 L 1191.207031 222.171875 L 1192.046875 210.613281 L 1194.359375 197.375 L 1198.769531 182.871094 L 1201.921875 174.886719 L 1208.4375 162.488281 L 1214.113281 153.871094 L 1221.046875 145.042969 L 1229.140625 136.320312 L 1236.703125 129.597656 L 1245.53125 122.871094 L 1256.25 116.355469 L 1262.976562 112.996094 L 1270.75 109.632812 L 1283.359375 105.847656 L 1295.339844 103.539062 Z M 1304.375 102.695312 " clip-rule="nonzero"/></clipPath><clipPath id="0eea4b1362"><path d="M 0.207031 0.695312 L 179.679688 0.695312 L 179.679688 248.472656 L 0.207031 248.472656 Z M 0.207031 0.695312 " clip-rule="nonzero"/></clipPath><clipPath id="6c293de6d0"><path d="M 113.375 0.695312 L 124.726562 0.695312 L 130.609375 1.117188 L 139.015625 2.378906 L 147.210938 4.269531 L 157.929688 7.632812 L 161.921875 9.3125 L 172.429688 14.355469 L 179.472656 18.351562 L 179.261719 19.714844 L 160.242188 63.535156 L 150.363281 57.019531 L 142.589844 53.445312 L 137.753906 51.765625 L 127.035156 49.453125 L 116.109375 49.035156 L 107.703125 49.875 L 103.707031 50.714844 L 97.824219 52.394531 L 91.097656 55.128906 L 83.953125 58.910156 L 77.019531 63.746094 L 67.246094 72.886719 L 61.992188 79.402344 L 58.839844 84.234375 L 54.636719 92.222656 L 51.695312 99.785156 L 50.011719 105.671875 L 48.332031 114.707031 L 47.910156 119.121094 L 47.910156 130.46875 L 48.542969 136.566406 L 49.59375 141.609375 L 52.535156 151.484375 L 54.847656 157.160156 L 61.78125 169.347656 L 69.242188 178.492188 L 75.335938 184.164062 L 80.589844 188.160156 L 86.6875 191.941406 L 94.042969 195.515625 L 99.296875 197.40625 L 106.230469 199.085938 L 114.007812 200.136719 L 120.730469 200.347656 L 130.1875 199.296875 L 140.066406 196.773438 L 150.785156 191.941406 L 160.242188 185.636719 L 179.679688 230.085938 L 172.222656 234.8125 L 162.132812 239.859375 L 148.261719 244.691406 L 141.539062 246.371094 L 132.289062 247.84375 L 124.933594 248.472656 L 113.167969 248.472656 L 104.128906 247.632812 L 95.511719 246.164062 L 83.953125 243.011719 L 75.546875 239.859375 L 64.621094 234.605469 L 59.367188 231.453125 L 51.378906 226.199219 L 42.867188 219.472656 L 42.34375 218.632812 L 34.25 210.960938 L 25.84375 201.082031 L 21.011719 194.359375 L 14.917969 184.269531 L 9.242188 172.292969 L 4.828125 159.261719 L 2.308594 148.542969 L 0.625 136.773438 L 0.207031 129.417969 L 0.207031 120.171875 L 1.046875 108.613281 L 3.359375 95.375 L 7.769531 80.871094 L 10.921875 72.886719 L 17.4375 60.488281 L 23.113281 51.871094 L 30.046875 43.042969 L 38.140625 34.320312 L 45.703125 27.597656 L 54.53125 20.871094 L 65.25 14.355469 L 71.976562 10.996094 L 79.75 7.632812 L 92.359375 3.847656 L 104.339844 1.539062 Z M 113.375 0.695312 " clip-rule="nonzero"/></clipPath><clipPath id="6ab9957bbe"><rect x="0" width="180" y="0" height="249"/></clipPath><clipPath id="dc398e3218"><path d="M 59.699219 67.628906 L 950.75 67.628906 L 950.75 270.539062 L 59.699219 270.539062 Z M 59.699219 67.628906 " clip-rule="nonzero"/></clipPath><clipPath id="9d3cb0b691"><path d="M 613.054688 67.628906 L 638.539062 67.628906 L 640.011719 69.097656 L 640.011719 85.273438 L 678.242188 85.273438 L 678.242188 110.269531 L 653.734375 270.539062 L 625.796875 270.539062 L 625.304688 263.1875 L 649.8125 112.230469 L 648.34375 110.757812 L 611.582031 110.757812 L 611.582031 69.097656 Z M 613.054688 67.628906 L 721.863281 67.628906 L 723.332031 69.097656 L 723.332031 83.800781 L 724.800781 85.273438 L 761.070312 85.273438 L 762.542969 86.742188 L 762.542969 106.347656 L 738.035156 264.167969 L 735.585938 270.539062 L 709.117188 270.539062 L 707.648438 269.070312 L 733.132812 110.757812 L 696.375 110.757812 L 694.90625 109.289062 L 694.90625 67.628906 Z M 613.054688 67.628906 L 63.621094 85.273438 L 92.539062 85.273438 L 94.988281 87.722656 L 115.574219 147.027344 L 117.535156 147.027344 L 117.535156 142.617188 L 124.398438 110.757812 L 116.066406 110.757812 L 114.59375 109.289062 L 114.59375 87.722656 L 115.574219 85.273438 L 149.394531 85.273438 L 150.863281 86.742188 L 150.863281 115.167969 L 131.257812 173.984375 L 129.296875 186.726562 L 154.785156 270.539062 L 126.847656 270.539062 L 124.398438 269.558594 L 91.558594 157.8125 L 90.089844 159.28125 L 87.148438 164.183594 L 87.148438 174.964844 L 101.851562 245.542969 L 101.851562 270.539062 L 62.152344 270.539062 L 60.679688 269.070312 L 60.679688 245.054688 L 72.933594 245.054688 L 73.421875 242.601562 L 60.679688 178.886719 L 59.699219 163.203125 L 65.582031 147.519531 L 73.914062 137.226562 L 81.265625 132.324219 L 63.621094 85.273438 Z M 613.054688 67.628906 L 167.527344 85.273438 L 213.109375 85.273438 L 220.953125 87.234375 L 228.304688 92.625 L 234.183594 108.308594 L 234.183594 270.539062 L 207.226562 270.539062 L 205.757812 269.070312 L 205.757812 116.148438 L 203.308594 111.738281 L 168.019531 110.757812 L 166.546875 109.289062 L 166.546875 87.722656 L 167.527344 85.273438 Z M 613.054688 67.628906 L 254.769531 85.273438 L 307.214844 85.273438 L 319.957031 88.210938 L 329.269531 95.566406 L 334.171875 105.367188 L 337.113281 125.953125 L 337.113281 269.070312 L 335.640625 270.539062 L 258.203125 270.539062 L 255.75 269.558594 L 255.75 245.054688 L 307.214844 245.054688 L 307.703125 242.601562 L 308.683594 226.917969 L 307.703125 213.195312 L 308.683594 172.023438 L 307.703125 164.183594 L 307.703125 162.222656 L 308.683594 133.792969 L 306.722656 115.167969 L 303.292969 111.738281 L 285.648438 110.757812 L 284.179688 112.230469 L 284.179688 166.632812 L 292.019531 167.613281 L 292.019531 192.121094 L 256.730469 192.121094 L 256.730469 131.832031 L 260.652344 120.070312 L 267.515625 110.757812 L 256.242188 110.757812 L 254.769531 109.289062 L 253.789062 91.644531 L 254.769531 85.273438 Z M 613.054688 67.628906 L 357.207031 85.273438 L 436.609375 85.273438 L 438.078125 86.742188 L 438.078125 226.917969 L 433.175781 247.503906 L 422.882812 260.738281 L 406.21875 268.578125 L 390.535156 270.539062 L 368.96875 270.539062 L 367.5 269.070312 L 366.519531 255.347656 L 360.636719 122.03125 L 369.460938 110.757812 L 357.207031 110.757812 L 355.738281 109.289062 L 355.738281 86.742188 L 357.207031 85.273438 Z M 613.054688 67.628906 L 388.085938 110.757812 L 392.988281 224.46875 L 394.945312 244.074219 L 402.789062 242.113281 L 408.671875 235.25 L 408.671875 111.738281 L 388.085938 110.757812 Z M 613.054688 67.628906 L 510.125 85.273438 L 590.507812 85.273438 L 591.976562 86.742188 L 591.976562 270.050781 L 591.488281 270.539062 L 563.550781 270.539062 L 563.550781 112.230469 L 562.082031 110.757812 L 543.945312 110.757812 L 543.945312 157.320312 L 546.886719 250.445312 L 545.90625 269.070312 L 544.4375 270.539062 L 506.207031 270.539062 L 504.734375 269.070312 L 504.734375 246.523438 L 506.207031 245.054688 L 514.046875 245.054688 L 517.480469 242.601562 L 518.457031 218.097656 L 515.519531 122.03125 L 524.339844 111.25 L 510.125 110.757812 L 508.65625 109.289062 L 508.65625 86.742188 L 510.125 85.273438 Z M 613.054688 67.628906 L 781.167969 85.273438 L 846.355469 85.273438 L 847.824219 86.742188 L 847.824219 246.523438 L 845.863281 254.367188 L 839.492188 263.679688 L 833.609375 267.597656 L 819.886719 270.539062 L 781.167969 270.539062 L 780.1875 251.425781 L 781.167969 245.054688 L 813.023438 245.054688 L 818.417969 240.640625 L 819.398438 218.097656 L 819.398438 216.136719 L 818.417969 110.757812 L 781.65625 110.757812 L 781.167969 100.464844 L 780.1875 90.664062 L 781.167969 85.273438 Z M 613.054688 67.628906 L 867.429688 85.273438 L 897.328125 85.273438 L 898.796875 86.742188 L 901.246094 96.054688 L 911.050781 87.234375 L 916.933594 85.273438 L 930.65625 85.273438 L 938.496094 88.210938 L 944.871094 93.605469 L 948.789062 101.445312 L 950.75 113.210938 L 950.75 269.070312 L 949.28125 270.539062 L 911.539062 270.539062 L 911.539062 245.542969 L 921.34375 245.054688 L 921.34375 238.679688 L 922.324219 236.722656 L 921.34375 224.957031 L 922.324219 221.035156 L 921.34375 207.3125 L 922.324219 173.984375 L 921.34375 172.023438 L 922.324219 163.203125 L 921.34375 157.320312 L 922.324219 123.011719 L 921.34375 113.210938 L 918.890625 110.757812 L 913.011719 110.757812 L 906.640625 116.148438 L 903.699219 125.953125 L 898.796875 240.640625 L 896.835938 269.070312 L 895.367188 270.539062 L 867.429688 270.539062 L 867.429688 257.304688 L 873.3125 180.847656 L 875.269531 130.855469 L 876.25 122.03125 L 883.113281 110.757812 L 867.429688 110.757812 L 867.429688 85.273438 Z M 613.054688 67.628906 " clip-rule="nonzero"/></clipPath><clipPath id="696d2311a3"><path d="M 0.699219 0.628906 L 891.75 0.628906 L 891.75 203.539062 L 0.699219 203.539062 Z M 0.699219 0.628906 " clip-rule="nonzero"/></clipPath><clipPath id="02af02a9a0"><path d="M 554.054688 0.628906 L 579.539062 0.628906 L 581.011719 2.097656 L 581.011719 18.273438 L 619.242188 18.273438 L 619.242188 43.269531 L 594.734375 203.539062 L 566.796875 203.539062 L 566.304688 196.1875 L 590.8125 45.230469 L 589.34375 43.757812 L 552.582031 43.757812 L 552.582031 2.097656 Z M 554.054688 0.628906 L 662.863281 0.628906 L 664.332031 2.097656 L 664.332031 16.800781 L 665.800781 18.273438 L 702.070312 18.273438 L 703.542969 19.742188 L 703.542969 39.347656 L 679.035156 197.167969 L 676.585938 203.539062 L 650.117188 203.539062 L 648.648438 202.070312 L 674.132812 43.757812 L 637.375 43.757812 L 635.90625 42.289062 L 635.90625 0.628906 Z M 554.054688 0.628906 L 4.621094 18.273438 L 33.539062 18.273438 L 35.988281 20.722656 L 56.574219 80.027344 L 58.535156 80.027344 L 58.535156 75.617188 L 65.398438 43.757812 L 57.066406 43.757812 L 55.59375 42.289062 L 55.59375 20.722656 L 56.574219 18.273438 L 90.394531 18.273438 L 91.863281 19.742188 L 91.863281 48.167969 L 72.257812 106.984375 L 70.296875 119.726562 L 95.785156 203.539062 L 67.847656 203.539062 L 65.398438 202.558594 L 32.558594 90.8125 L 31.089844 92.28125 L 28.148438 97.183594 L 28.148438 107.964844 L 42.851562 178.542969 L 42.851562 203.539062 L 3.152344 203.539062 L 1.679688 202.070312 L 1.679688 178.054688 L 13.933594 178.054688 L 14.421875 175.601562 L 1.679688 111.886719 L 0.699219 96.203125 L 6.582031 80.519531 L 14.914062 70.226562 L 22.265625 65.324219 L 4.621094 18.273438 Z M 554.054688 0.628906 L 108.527344 18.273438 L 154.109375 18.273438 L 161.953125 20.234375 L 169.304688 25.625 L 175.183594 41.308594 L 175.183594 203.539062 L 148.226562 203.539062 L 146.757812 202.070312 L 146.757812 49.148438 L 144.308594 44.738281 L 109.019531 43.757812 L 107.546875 42.289062 L 107.546875 20.722656 L 108.527344 18.273438 Z M 554.054688 0.628906 L 195.769531 18.273438 L 248.214844 18.273438 L 260.957031 21.210938 L 270.269531 28.566406 L 275.171875 38.367188 L 278.113281 58.953125 L 278.113281 202.070312 L 276.640625 203.539062 L 199.203125 203.539062 L 196.75 202.558594 L 196.75 178.054688 L 248.214844 178.054688 L 248.703125 175.601562 L 249.683594 159.917969 L 248.703125 146.195312 L 249.683594 105.023438 L 248.703125 97.183594 L 248.703125 95.222656 L 249.683594 66.792969 L 247.722656 48.167969 L 244.292969 44.738281 L 226.648438 43.757812 L 225.179688 45.230469 L 225.179688 99.632812 L 233.019531 100.613281 L 233.019531 125.121094 L 197.730469 125.121094 L 197.730469 64.832031 L 201.652344 53.070312 L 208.515625 43.757812 L 197.242188 43.757812 L 195.769531 42.289062 L 194.789062 24.644531 L 195.769531 18.273438 Z M 554.054688 0.628906 L 298.207031 18.273438 L 377.609375 18.273438 L 379.078125 19.742188 L 379.078125 159.917969 L 374.175781 180.503906 L 363.882812 193.738281 L 347.21875 201.578125 L 331.535156 203.539062 L 309.96875 203.539062 L 308.5 202.070312 L 307.519531 188.347656 L 301.636719 55.03125 L 310.460938 43.757812 L 298.207031 43.757812 L 296.738281 42.289062 L 296.738281 19.742188 L 298.207031 18.273438 Z M 554.054688 0.628906 L 329.085938 43.757812 L 333.988281 157.46875 L 335.945312 177.074219 L 343.789062 175.113281 L 349.671875 168.25 L 349.671875 44.738281 L 329.085938 43.757812 Z M 554.054688 0.628906 L 451.125 18.273438 L 531.507812 18.273438 L 532.976562 19.742188 L 532.976562 203.050781 L 532.488281 203.539062 L 504.550781 203.539062 L 504.550781 45.230469 L 503.082031 43.757812 L 484.945312 43.757812 L 484.945312 90.320312 L 487.886719 183.445312 L 486.90625 202.070312 L 485.4375 203.539062 L 447.207031 203.539062 L 445.734375 202.070312 L 445.734375 179.523438 L 447.207031 178.054688 L 455.046875 178.054688 L 458.480469 175.601562 L 459.457031 151.097656 L 456.519531 55.03125 L 465.339844 44.25 L 451.125 43.757812 L 449.65625 42.289062 L 449.65625 19.742188 L 451.125 18.273438 Z M 554.054688 0.628906 L 722.167969 18.273438 L 787.355469 18.273438 L 788.824219 19.742188 L 788.824219 179.523438 L 786.863281 187.367188 L 780.492188 196.679688 L 774.609375 200.597656 L 760.886719 203.539062 L 722.167969 203.539062 L 721.1875 184.425781 L 722.167969 178.054688 L 754.023438 178.054688 L 759.417969 173.640625 L 760.398438 151.097656 L 760.398438 149.136719 L 759.417969 43.757812 L 722.65625 43.757812 L 722.167969 33.464844 L 721.1875 23.664062 L 722.167969 18.273438 Z M 554.054688 0.628906 L 808.429688 18.273438 L 838.328125 18.273438 L 839.796875 19.742188 L 842.246094 29.054688 L 852.050781 20.234375 L 857.933594 18.273438 L 871.65625 18.273438 L 879.496094 21.210938 L 885.871094 26.605469 L 889.789062 34.445312 L 891.75 46.210938 L 891.75 202.070312 L 890.28125 203.539062 L 852.539062 203.539062 L 852.539062 178.542969 L 862.34375 178.054688 L 862.34375 171.679688 L 863.324219 169.722656 L 862.34375 157.957031 L 863.324219 154.035156 L 862.34375 140.3125 L 863.324219 106.984375 L 862.34375 105.023438 L 863.324219 96.203125 L 862.34375 90.320312 L 863.324219 56.011719 L 862.34375 46.210938 L 859.890625 43.757812 L 854.011719 43.757812 L 847.640625 49.148438 L 844.699219 58.953125 L 839.796875 173.640625 L 837.835938 202.070312 L 836.367188 203.539062 L 808.429688 203.539062 L 808.429688 190.304688 L 814.3125 113.847656 L 816.269531 63.855469 L 817.25 55.03125 L 824.113281 43.757812 L 808.429688 43.757812 L 808.429688 18.273438 Z M 554.054688 0.628906 " clip-rule="nonzero"/></clipPath><clipPath id="8047389cde"><rect x="0" width="892" y="0" height="204"/></clipPath><clipPath id="bcba238c6a"><path d="M 992.367188 8.472656 L 1190.488281 8.472656 L 1190.488281 276.367188 L 992.367188 276.367188 Z M 992.367188 8.472656 " clip-rule="nonzero"/></clipPath><clipPath id="205f4da7d7"><path d="M 1001.410156 8.472656 L 1190.488281 85.351562 L 1190.488281 135.3125 L 1189.839844 135.527344 L 1001.410156 59.078125 Z M 1001.410156 8.472656 L 1002.273438 85.566406 L 1005.070312 86 L 1052.878906 105.378906 L 1129.542969 137.25 L 1149.355469 148.449219 L 1161.199219 159.433594 L 1167.230469 168.046875 L 1172.398438 180.535156 L 1174.980469 195.179688 L 1174.980469 207.671875 L 1172.398438 221.882812 L 1168.519531 232.21875 L 1161.628906 243.417969 L 1154.09375 251.816406 L 1139.449219 262.585938 L 1129.113281 267.753906 L 1117.054688 272.058594 L 1105.855469 274.644531 L 1092.503906 276.367188 L 1074.414062 276.367188 L 1053.742188 273.351562 L 1041.25 269.90625 L 1027.898438 264.738281 L 1008.085938 253.96875 L 992.367188 241.695312 L 1023.160156 204.007812 L 1036.511719 213.914062 L 1055.894531 223.820312 L 1073.121094 228.558594 L 1080.445312 229.421875 L 1092.074219 229.421875 L 1104.992188 226.835938 L 1112.746094 222.527344 L 1116.40625 218.867188 L 1119.421875 213.269531 L 1120.28125 205.085938 L 1117.699219 196.902344 L 1112.746094 191.089844 L 1096.808594 182.042969 L 1061.492188 167.398438 L 1038.234375 156.632812 L 1028.761719 150.601562 L 1017.347656 140.050781 L 1010.457031 130.574219 L 1005.71875 120.667969 L 1001.839844 106.027344 L 1001.410156 96.121094 L 1002.273438 85.566406 Z M 1001.410156 8.472656 " clip-rule="nonzero"/></clipPath><clipPath id="3f8ea3faf5"><path d="M 0.367188 0.472656 L 198.488281 0.472656 L 198.488281 268.367188 L 0.367188 268.367188 Z M 0.367188 0.472656 " clip-rule="nonzero"/></clipPath><clipPath id="24df194555"><path d="M 9.410156 0.472656 L 198.488281 77.351562 L 198.488281 127.3125 L 197.839844 127.527344 L 9.410156 51.078125 Z M 9.410156 0.472656 L 10.273438 77.566406 L 13.070312 78 L 60.878906 97.378906 L 137.542969 129.25 L 157.355469 140.449219 L 169.199219 151.433594 L 175.230469 160.046875 L 180.398438 172.535156 L 182.980469 187.179688 L 182.980469 199.671875 L 180.398438 213.882812 L 176.519531 224.21875 L 169.628906 235.417969 L 162.09375 243.816406 L 147.449219 254.585938 L 137.113281 259.753906 L 125.054688 264.058594 L 113.855469 266.644531 L 100.503906 268.367188 L 82.414062 268.367188 L 61.742188 265.351562 L 49.25 261.90625 L 35.898438 256.738281 L 16.085938 245.96875 L 0.367188 233.695312 L 31.160156 196.007812 L 44.511719 205.914062 L 63.894531 215.820312 L 81.121094 220.558594 L 88.445312 221.421875 L 100.074219 221.421875 L 112.992188 218.835938 L 120.746094 214.527344 L 124.40625 210.867188 L 127.421875 205.269531 L 128.28125 197.085938 L 125.699219 188.902344 L 120.746094 183.089844 L 104.808594 174.042969 L 69.492188 159.398438 L 46.234375 148.632812 L 36.761719 142.601562 L 25.347656 132.050781 L 18.457031 122.574219 L 13.71875 112.667969 L 9.839844 98.027344 L 9.410156 88.121094 L 10.273438 77.566406 Z M 9.410156 0.472656 " clip-rule="nonzero"/></clipPath><clipPath id="e4092ec271"><rect x="0" width="199" y="0" height="269"/></clipPath><clipPath id="b27b8e6e10"><rect x="0" width="1401" y="0" height="375"/></clipPath><clipPath id="fa667de009"><rect x="0" width="910" y="0" height="90"/></clipPath></defs><g transform="matrix(1, 0, 0, 1, 62, 0)"><g clip-path="url(#b27b8e6e10)"><g clip-path="url(#7df9fa6277)"><g clip-path="url(#ca64ee6b07)"><g transform="matrix(1, 0, 0, 1, 1118, 264)"><g clip-path="url(#8c47149e71)"><g clip-path="url(#c032fde436)"><g clip-path="url(#d43acc435e)"><rect x="-1739.104" width="2654.208" fill="#ffffff" y="-400.499997" height="647.999984" fill-opacity="1"/></g></g></g></g></g></g><g clip-path="url(#558e1782b4)"><g clip-path="url(#d28f1f6316)"><g transform="matrix(1, 0, 0, 1, 1191, 102)"><g clip-path="url(#6ab9957bbe)"><g clip-path="url(#0eea4b1362)"><g clip-path="url(#6c293de6d0)"><rect x="-1812.104" width="2654.208" fill="#ffffff" y="-238.499997" height="647.999984" fill-opacity="1"/></g></g></g></g></g></g><g clip-path="url(#dc398e3218)"><g clip-path="url(#9d3cb0b691)"><g transform="matrix(1, 0, 0, 1, 59, 67)"><g clip-path="url(#8047389cde)"><g clip-path="url(#696d2311a3)"><g clip-path="url(#02af02a9a0)"><rect x="-680.104" width="2654.208" fill="#ffffff" y="-203.499997" height="647.999984" fill-opacity="1"/></g></g></g></g></g></g><g clip-path="url(#bcba238c6a)"><g clip-path="url(#205f4da7d7)"><g transform="matrix(1, 0, 0, 1, 992, 8)"><g clip-path="url(#e4092ec271)"><g clip-path="url(#3f8ea3faf5)"><g clip-path="url(#24df194555)"><rect x="-1613.104" width="2654.208" fill="#e9be00" y="-144.499997" height="647.999984" fill-opacity="1"/></g></g></g></g></g></g></g></g><g transform="matrix(1, 0, 0, 1, 113, 272)"><g clip-path="url(#fa667de009)"><g fill="#e9be00" fill-opacity="1"><g transform="translate(1.579607, 69.91595)"><g><path d="M 9.375 15.71875 L 9.375 -14.671875 L 0.203125 -39.4375 L 10.484375 -39.4375 L 18.015625 -17.890625 L 19.78125 -18.40625 C 21.132812 -18.84375 22.148438 -19.617188 22.828125 -20.734375 C 23.503906 -21.847656 23.929688 -23.5 24.109375 -25.6875 L 25.421875 -39.4375 L 35.25 -39.4375 L 34.0625 -26.59375 C 33.894531 -24.632812 33.632812 -22.832031 33.28125 -21.1875 C 32.925781 -19.550781 32.34375 -18.066406 31.53125 -16.734375 C 30.726562 -15.398438 29.550781 -14.207031 28 -13.15625 C 26.457031 -12.113281 24.394531 -11.203125 21.8125 -10.421875 L 19.203125 -9.625 L 19.203125 15.71875 Z M 9.375 15.71875 "/></g></g></g><g fill="#e9be00" fill-opacity="1"><g transform="translate(37.15065, 69.91595)"><g><path d="M 5.234375 0 L 5.234375 -39.4375 L 15.0625 -39.4375 L 15.0625 0 Z M 5.234375 0 "/></g></g></g><g fill="#e9be00" fill-opacity="1"><g transform="translate(57.458242, 69.91595)"><g><path d="M 0.984375 0 L 0.984375 -8.25 L 11.203125 -8.25 L 3.53125 -39.4375 L 13.359375 -39.4375 L 20.765625 -9.046875 C 23.566406 -9.960938 25.6875 -11.6875 27.125 -14.21875 C 28.5625 -16.75 29.476562 -20.285156 29.875 -24.828125 L 31.453125 -39.4375 L 41.28125 -39.4375 L 39.765625 -24.5625 C 39.546875 -22.601562 39.195312 -20.507812 38.71875 -18.28125 C 38.238281 -16.050781 37.472656 -13.851562 36.421875 -11.6875 C 35.378906 -9.53125 33.953125 -7.566406 32.140625 -5.796875 C 30.328125 -4.023438 28.007812 -2.613281 25.1875 -1.5625 C 22.375 -0.519531 18.914062 0 14.8125 0 Z M 0.984375 0 "/></g></g></g><g fill="#e9be00" fill-opacity="1"><g transform="translate(100.366219, 69.91595)"><g><path d="M 4.59375 -13.953125 L 4.59375 -39.4375 L 14.40625 -39.4375 L 14.40625 -21.75 L 9.5 -13.953125 Z M 4.59375 -13.953125 "/></g></g></g><g fill="#e9be00" fill-opacity="1"><g transform="translate(119.036101, 69.91595)"><g><path d="M 4.59375 -13.953125 L 4.59375 -39.4375 L 14.40625 -39.4375 L 14.40625 -21.75 L 9.5 -13.953125 Z M 4.59375 -13.953125 "/></g></g></g><g fill="#e9be00" fill-opacity="1"><g transform="translate(137.705983, 69.91595)"><g><path d="M 31.25 0 L 31.25 -24.5 C 31.25 -26.945312 30.800781 -28.671875 29.90625 -29.671875 C 29.007812 -30.679688 27.554688 -31.1875 25.546875 -31.1875 L 5.234375 -31.1875 L 5.234375 -39.4375 L 25.9375 -39.4375 C 36.03125 -39.4375 41.078125 -34.828125 41.078125 -25.609375 L 41.078125 0 Z M 5.234375 0 L 5.234375 -22.9375 L 15.0625 -22.9375 L 15.0625 0 Z M 5.234375 0 "/></g></g></g><g fill="#e9be00" fill-opacity="1"><g transform="translate(183.692859, 69.91595)"><g><path d="M 5.234375 0 L 5.234375 -39.4375 L 15.0625 -39.4375 L 15.0625 0 Z M 5.234375 0 "/></g></g></g><g fill="#e9be00" fill-opacity="1"><g transform="translate(219.449923, 69.91595)"><g><path d="M 10.8125 -39.4375 L 35.046875 -39.4375 L 35.046875 -33.40625 L 22.34375 0 L 12.0625 0 L 24.375 -31.1875 L 0.984375 -31.1875 L 0.984375 -49.796875 L 10.8125 -49.796875 Z M 10.8125 -39.4375 "/></g></g></g><g fill="#e9be00" fill-opacity="1"><g transform="translate(256.462155, 69.91595)"><g><path d="M 5.234375 0 L 5.234375 -39.4375 L 15.0625 -39.4375 L 15.0625 0 Z M 5.234375 0 "/></g></g></g><g fill="#e9be00" fill-opacity="1"><g transform="translate(276.769737, 69.91595)"><g><path d="M 2.953125 0 L 2.953125 -8.25 L 20.3125 -8.25 C 23.363281 -8.25 25.707031 -9.078125 27.34375 -10.734375 C 28.988281 -12.398438 29.8125 -15.222656 29.8125 -19.203125 C 29.8125 -23.304688 28.894531 -26.328125 27.0625 -28.265625 C 25.226562 -30.210938 22.429688 -31.1875 18.671875 -31.1875 L 12.78125 -31.1875 L 12.78125 -28.625 C 12.78125 -26.882812 12.972656 -25.578125 13.359375 -24.703125 C 13.753906 -23.828125 14.3125 -23.234375 15.03125 -22.921875 C 15.75 -22.617188 16.570312 -22.46875 17.5 -22.46875 C 17.84375 -22.46875 18.175781 -22.476562 18.5 -22.5 C 18.832031 -22.519531 19.148438 -22.554688 19.453125 -22.609375 L 19.453125 -14.34375 C 18.972656 -14.300781 18.4375 -14.257812 17.84375 -14.21875 C 17.257812 -14.175781 16.726562 -14.15625 16.25 -14.15625 C 11.96875 -14.15625 8.679688 -15.363281 6.390625 -17.78125 C 4.097656 -20.207031 2.953125 -23.648438 2.953125 -28.109375 L 2.953125 -39.4375 L 19.328125 -39.4375 C 23.566406 -39.4375 27.210938 -38.640625 30.265625 -37.046875 C 33.328125 -35.453125 35.6875 -33.160156 37.34375 -30.171875 C 39 -27.179688 39.828125 -23.585938 39.828125 -19.390625 C 39.828125 -15.242188 39.019531 -11.726562 37.40625 -8.84375 C 35.789062 -5.957031 33.519531 -3.757812 30.59375 -2.25 C 27.664062 -0.75 24.238281 0 20.3125 0 Z M 2.953125 0 "/></g></g></g><g fill="#e9be00" fill-opacity="1"><g transform="translate(318.236441, 69.91595)"><g><path d="M 4.59375 -13.953125 L 4.59375 -39.4375 L 14.40625 -39.4375 L 14.40625 -21.75 L 9.5 -13.953125 Z M 4.59375 -13.953125 "/></g></g></g><g fill="#e9be00" fill-opacity="1"><g transform="translate(336.906361, 69.91595)"><g><path d="M 24.5625 0.78125 C 11.25 0.78125 4.59375 -6.445312 4.59375 -20.90625 L 4.59375 -39.4375 L 14.40625 -39.4375 L 14.40625 -20.90625 C 14.40625 -16.226562 15.257812 -12.773438 16.96875 -10.546875 C 18.675781 -8.316406 21.234375 -7.203125 24.640625 -7.203125 C 28.390625 -7.203125 30.941406 -8.347656 32.296875 -10.640625 C 33.648438 -12.929688 34.328125 -16.351562 34.328125 -20.90625 C 34.328125 -25.050781 33.8125 -27.882812 32.78125 -29.40625 C 31.757812 -30.9375 30.332031 -31.703125 28.5 -31.703125 C 27.0625 -31.703125 25.695312 -31.5625 24.40625 -31.28125 C 23.113281 -31 21.835938 -30.597656 20.578125 -30.078125 L 20.578125 -38.328125 C 21.710938 -38.671875 23.128906 -39.050781 24.828125 -39.46875 C 26.535156 -39.882812 28.394531 -40.09375 30.40625 -40.09375 C 33.457031 -40.09375 35.910156 -39.523438 37.765625 -38.390625 C 39.617188 -37.253906 41.023438 -35.769531 41.984375 -33.9375 C 42.953125 -32.101562 43.609375 -30.09375 43.953125 -27.90625 C 44.304688 -25.726562 44.484375 -23.585938 44.484375 -21.484375 C 44.484375 -15.941406 43.695312 -11.539062 42.125 -8.28125 C 40.550781 -5.03125 38.28125 -2.707031 35.3125 -1.3125 C 32.34375 0.0820312 28.757812 0.78125 24.5625 0.78125 Z M 24.5625 0.78125 "/></g></g></g><g fill="#e9be00" fill-opacity="1"><g transform="translate(384.334406, 69.91595)"><g><path d="M 31.25 0 L 31.25 -24.5 C 31.25 -26.945312 30.800781 -28.671875 29.90625 -29.671875 C 29.007812 -30.679688 27.554688 -31.1875 25.546875 -31.1875 L 5.234375 -31.1875 L 5.234375 -39.4375 L 25.9375 -39.4375 C 36.03125 -39.4375 41.078125 -34.828125 41.078125 -25.609375 L 41.078125 0 Z M 5.234375 0 L 5.234375 -22.9375 L 15.0625 -22.9375 L 15.0625 0 Z M 5.234375 0 "/></g></g></g><g fill="#e9be00" fill-opacity="1"><g transform="translate(430.321263, 69.91595)"><g/></g></g><g fill="#e9be00" fill-opacity="1"><g transform="translate(445.770747, 69.91595)"><g><path d="M 1.96875 0 L 1.96875 -8.25 L 6.359375 -8.25 C 7.015625 -8.25 7.546875 -8.46875 7.953125 -8.90625 C 8.367188 -9.34375 8.578125 -9.976562 8.578125 -10.8125 L 8.578125 -31.1875 L 2.234375 -31.1875 L 2.234375 -39.4375 L 26.921875 -39.4375 C 37.015625 -39.4375 42.0625 -34.828125 42.0625 -25.609375 L 42.0625 0 L 32.234375 0 L 32.234375 -24.5 C 32.234375 -26.945312 31.796875 -28.671875 30.921875 -29.671875 C 30.046875 -30.679688 28.582031 -31.1875 26.53125 -31.1875 L 18.40625 -31.1875 L 18.40625 -11.921875 C 18.40625 -7.898438 17.550781 -4.90625 15.84375 -2.9375 C 14.144531 -0.976562 11.503906 0 7.921875 0 Z M 1.96875 0 "/></g></g></g><g fill="#e9be00" fill-opacity="1"><g transform="translate(492.740239, 69.91595)"><g><path d="M 5.234375 0 L 5.234375 -39.4375 L 15.0625 -39.4375 L 15.0625 0 Z M 5.234375 0 "/></g></g></g><g fill="#e9be00" fill-opacity="1"><g transform="translate(513.047822, 69.91595)"><g><path d="M 0.984375 0 L 0.984375 -8.25 L 11.203125 -8.25 L 3.53125 -39.4375 L 13.359375 -39.4375 L 20.765625 -9.046875 C 23.566406 -9.960938 25.6875 -11.6875 27.125 -14.21875 C 28.5625 -16.75 29.476562 -20.285156 29.875 -24.828125 L 31.453125 -39.4375 L 41.28125 -39.4375 L 39.765625 -24.5625 C 39.546875 -22.601562 39.195312 -20.507812 38.71875 -18.28125 C 38.238281 -16.050781 37.472656 -13.851562 36.421875 -11.6875 C 35.378906 -9.53125 33.953125 -7.566406 32.140625 -5.796875 C 30.328125 -4.023438 28.007812 -2.613281 25.1875 -1.5625 C 22.375 -0.519531 18.914062 0 14.8125 0 Z M 0.984375 0 "/></g></g></g><g fill="#e9be00" fill-opacity="1"><g transform="translate(555.955827, 69.91595)"><g><path d="M 5.234375 0 L 5.234375 -39.4375 L 15.0625 -39.4375 L 15.0625 0 Z M 5.234375 0 "/></g></g></g><g fill="#e9be00" fill-opacity="1"><g transform="translate(576.26341, 69.91595)"><g><path d="M 2.09375 0 L 2.09375 -8.328125 L 23.78125 -8.328125 L 1.3125 -39.4375 L 12.640625 -39.4375 L 25.21875 -21.234375 C 26.1875 -22.148438 26.875 -23.457031 27.28125 -25.15625 C 27.695312 -26.863281 27.90625 -28.875 27.90625 -31.1875 L 27.90625 -39.4375 L 37.734375 -39.4375 L 37.734375 -31.578125 C 37.734375 -27.429688 36.976562 -23.90625 35.46875 -21 C 33.96875 -18.09375 32.125 -15.941406 29.9375 -14.546875 L 35.90625 -6.296875 L 35.90625 0 Z M 2.09375 0 "/></g></g></g><g fill="#e9be00" fill-opacity="1"><g transform="translate(616.944104, 69.91595)"><g><path d="M 19.59375 0 L 31.90625 -31.1875 L 4.90625 -31.1875 L 4.90625 -39.4375 L 42.578125 -39.4375 L 42.578125 -33.34375 L 29.875 0 Z M 4.90625 15.71875 L 4.90625 -24.375 L 14.734375 -24.375 L 14.734375 15.71875 Z M 4.90625 15.71875 "/></g></g></g><g fill="#e9be00" fill-opacity="1"><g transform="translate(661.48981, 69.91595)"><g><path d="M 26.734375 -40.09375 C 29.609375 -40.09375 32.09375 -39.457031 34.1875 -38.1875 C 36.289062 -36.925781 37.921875 -35.132812 39.078125 -32.8125 C 40.234375 -30.5 40.8125 -27.796875 40.8125 -24.703125 L 40.8125 0 L 19.84375 0 L 19.84375 -8.25 L 30.984375 -8.25 L 30.984375 -23.78125 C 30.984375 -28.84375 28.78125 -31.375 24.375 -31.375 C 21.707031 -31.375 19.628906 -30.425781 18.140625 -28.53125 C 16.660156 -26.632812 15.679688 -23.695312 15.203125 -19.71875 L 12.78125 0 L 2.953125 0 L 6.03125 -25.21875 L 3.078125 -39.4375 L 12.90625 -39.4375 L 14.078125 -33.015625 L 14.34375 -33.015625 C 15 -33.929688 15.828125 -34.945312 16.828125 -36.0625 C 17.835938 -37.175781 19.128906 -38.125 20.703125 -38.90625 C 22.273438 -39.695312 24.285156 -40.09375 26.734375 -40.09375 Z M 26.734375 -40.09375 "/></g></g></g><g fill="#e9be00" fill-opacity="1"><g transform="translate(705.904382, 69.91595)"><g><path d="M 10.8125 -39.4375 L 35.046875 -39.4375 L 35.046875 -33.40625 L 22.34375 0 L 12.0625 0 L 24.375 -31.1875 L 0.984375 -31.1875 L 0.984375 -49.796875 L 10.8125 -49.796875 Z M 10.8125 -39.4375 "/></g></g></g><g fill="#e9be00" fill-opacity="1"><g transform="translate(742.916618, 69.91595)"><g/></g></g><g fill="#e9be00" fill-opacity="1"><g transform="translate(758.366102, 69.91595)"><g><path d="M 1.96875 0 L 1.96875 -8.25 L 6.359375 -8.25 C 7.015625 -8.25 7.546875 -8.46875 7.953125 -8.90625 C 8.367188 -9.34375 8.578125 -9.976562 8.578125 -10.8125 L 8.578125 -31.1875 L 2.234375 -31.1875 L 2.234375 -39.4375 L 26.921875 -39.4375 C 37.015625 -39.4375 42.0625 -34.828125 42.0625 -25.609375 L 42.0625 0 L 32.234375 0 L 32.234375 -24.5 C 32.234375 -26.945312 31.796875 -28.671875 30.921875 -29.671875 C 30.046875 -30.679688 28.582031 -31.1875 26.53125 -31.1875 L 18.40625 -31.1875 L 18.40625 -11.921875 C 18.40625 -7.898438 17.550781 -4.90625 15.84375 -2.9375 C 14.144531 -0.976562 11.503906 0 7.921875 0 Z M 1.96875 0 "/></g></g></g><g fill="#e9be00" fill-opacity="1"><g transform="translate(805.335594, 69.91595)"><g><path d="M 4.59375 -13.953125 L 4.59375 -39.4375 L 14.40625 -39.4375 L 14.40625 -21.75 L 9.5 -13.953125 Z M 4.59375 -13.953125 "/></g></g></g><g fill="#e9be00" fill-opacity="1"><g transform="translate(824.005476, 69.91595)"><g><path d="M 1.640625 0 L 1.640625 -8.25 L 22.53125 -8.25 L 22.53125 -24.5 C 22.53125 -26.945312 22.09375 -28.671875 21.21875 -29.671875 C 20.351562 -30.679688 18.894531 -31.1875 16.84375 -31.1875 L 1.640625 -31.1875 L 1.640625 -39.4375 L 17.234375 -39.4375 C 27.316406 -39.4375 32.359375 -34.828125 32.359375 -25.609375 L 32.359375 -8.25 L 37.46875 -8.25 L 37.46875 0 Z M 1.640625 0 "/></g></g></g><g fill="#e9be00" fill-opacity="1"><g transform="translate(862.786428, 69.91595)"><g><path d="M 31.25 0 L 31.25 -24.5 C 31.25 -26.945312 30.800781 -28.671875 29.90625 -29.671875 C 29.007812 -30.679688 27.554688 -31.1875 25.546875 -31.1875 L 5.234375 -31.1875 L 5.234375 -39.4375 L 25.9375 -39.4375 C 36.03125 -39.4375 41.078125 -34.828125 41.078125 -25.609375 L 41.078125 0 Z M 5.234375 0 L 5.234375 -22.9375 L 15.0625 -22.9375 L 15.0625 0 Z M 5.234375 0 "/></g></g></g></g></g></svg>